<svg id="Layer_1" data-name="Layer 1" xmlns="http://www.w3.org/2000/svg" viewBox="0 0 48 48"><defs><style>.cls-1{fill:none;stroke:#0984e3;stroke-miterlimit:10;stroke-width:1.19px;}</style></defs><title>Dashboard</title><path class="cls-1" d="M19,2H5.21A3.21,3.21,0,0,0,2,5.21v8.25a3.21,3.21,0,0,0,3.21,3.21H19a3.21,3.21,0,0,0,3.21-3.21V5.21A3.21,3.21,0,0,0,19,2Z"/><path class="cls-1" d="M19,20.33H5.21A3.21,3.21,0,0,0,2,23.54V42.79A3.21,3.21,0,0,0,5.21,46H19a3.21,3.21,0,0,0,3.21-3.21V23.54A3.21,3.21,0,0,0,19,20.33Z"/><path class="cls-1" d="M42.79,31.33H29a3.21,3.21,0,0,0-3.21,3.21v8.25A3.21,3.21,0,0,0,29,46H42.79A3.21,3.21,0,0,0,46,42.79V34.54A3.21,3.21,0,0,0,42.79,31.33Z"/><path class="cls-1" d="M42.79,2H29a3.21,3.21,0,0,0-3.21,3.21V24.46A3.21,3.21,0,0,0,29,27.67H42.79A3.21,3.21,0,0,0,46,24.46V5.21A3.21,3.21,0,0,0,42.79,2Z"/></svg>