<svg id="Layer_1" data-name="Layer 1" xmlns="http://www.w3.org/2000/svg" viewBox="0 0 48 48"><defs><style>.cls-1{fill:#0984e3;}</style></defs><title>Department</title><path class="cls-1" d="M46,33.9a7.86,7.86,0,0,0-5.7-7.26,7.31,7.31,0,0,0,1.19-2.09,2.17,2.17,0,0,0,.95-1.32c.13-.52.41-1.65-.2-2.26v-.51c0-.87.1-3.13-1.78-4.11a1.93,1.93,0,0,1-.07-.35l-.24-2.42-1.73,1.64a8.44,8.44,0,0,1-2.44.55l-.45.07c-3.31.52-3.26,2.43-3.21,4,0,.19,0,.4,0,.63v.46a2.42,2.42,0,0,0-.26,2.3A2,2,0,0,0,33,24.48a8.56,8.56,0,0,0,1.24,2.17,8.75,8.75,0,0,0-3.59,2.23,12.15,12.15,0,0,0-2.94-1.36,9.37,9.37,0,0,0,1.75-3,2.67,2.67,0,0,0,1.24-1.69c.17-.67.54-2.16-.26-2.9v-.76c.05-1.79-.15-4.27-2.37-5.37a2.77,2.77,0,0,1-.11-.58l-.29-2.87-2.06,1.94a10.36,10.36,0,0,1-3.35.78l-.6.09c-4.28.67-4.21,3-4.15,5.22,0,.24,0,.49,0,.77l0,.68c-.43.44-.76,1.29-.35,3a2.48,2.48,0,0,0,1.23,1.64,10.8,10.8,0,0,0,1.82,3.11,12,12,0,0,0-2.93,1.34,8.86,8.86,0,0,0-3.61-2.23,7.59,7.59,0,0,0,1.2-2.09,2.13,2.13,0,0,0,.94-1.33c.13-.51.41-1.64-.19-2.25v-.51c0-.87.09-3.13-1.79-4.11-.05-.18-.06-.32-.07-.35l-.23-2.42-1.74,1.64a8.34,8.34,0,0,1-2.44.55L9,15.83c-3.32.53-3.26,2.44-3.22,4,0,.19,0,.4,0,.63l0,.46c-.34.36-.57,1-.27,2.3a2,2,0,0,0,1,1.28,8.23,8.23,0,0,0,1.24,2.16A7.86,7.86,0,0,0,2,33.9v.52H13a9.16,9.16,0,0,0-.43,2.72v.52h23v-.52a9.16,9.16,0,0,0-.43-2.72H46V33.9Zm-4.13-.52V31.92a.53.53,0,0,0-.52-.53.52.52,0,0,0-.52.53v1.46H34.65a9.31,9.31,0,0,0-.93-1.62c-.06-.08-.11-.17-.17-.24a10.54,10.54,0,0,0-2-2,8,8,0,0,1,1.67-1.25l3.7,4.21a.53.53,0,0,0,.79,0l3.62-4.23a6.66,6.66,0,0,1,3.63,5.18Zm-7.45,3.24H30V34.49a.19.19,0,0,0,0-.07.52.52,0,0,0-.5-.45.53.53,0,0,0-.51.45s0,0,0,.07v2.13H19.09V34.49a.19.19,0,0,0,0-.07.51.51,0,0,0-1,0s0,0,0,.07v2.13H13.58a8.14,8.14,0,0,1,.47-2.2,4.65,4.65,0,0,1,.2-.52h0v0c.07-.16.15-.33.24-.49a8.35,8.35,0,0,1,.78-1.24,10,10,0,0,1,1.86-1.87c.14-.11.27-.21.42-.31s.29-.19.44-.28a6.48,6.48,0,0,1,.57-.33l5,5.72a.53.53,0,0,0,.39.18h0a.53.53,0,0,0,.39-.18l4.93-5.77c.23.12.45.25.67.38l.44.28c.14.1.28.2.41.31a9.69,9.69,0,0,1,1.86,1.87,9.32,9.32,0,0,1,.79,1.24c.08.16.16.33.23.49v0h0c.07.17.14.34.2.52A8.54,8.54,0,0,1,34.42,36.62ZM6.65,31.39a.53.53,0,0,0-.53.53v1.46H3.06a6.64,6.64,0,0,1,3.56-5.15l3.7,4.2a.53.53,0,0,0,.39.18.69.69,0,0,0,.4-.18l3.61-4.24a7.79,7.79,0,0,1,1.74,1.29,10.5,10.5,0,0,0-2,2l-.17.24a10,10,0,0,0-.93,1.62H7.17V31.91A.53.53,0,0,0,6.65,31.39Zm.6-7.72L7,23.6A1,1,0,0,1,6.51,23c-.21-.85-.1-1.28.07-1.39l.24-.16,0-1c0-.23,0-.45,0-.65,0-1.53-.07-2.54,2.34-2.91l.41-.07s2.41-.25,3-.82l.19-.18,0,.29a3.08,3.08,0,0,0,.19.82l.08.21.2.09c1,.44,1.43,1.4,1.38,3.24v1.07l.26.15c.06,0,.23.23,0,1.3a1.06,1.06,0,0,1-.55.73l-.22.09L14,24a5.92,5.92,0,0,1-1.41,2.33,3.71,3.71,0,0,1-.54.44,2.45,2.45,0,0,1-1.26.41h-.12l-.1,0a2.45,2.45,0,0,1-1.21-.4,3.34,3.34,0,0,1-.54-.44,6.93,6.93,0,0,1-1.47-2.43Zm4.24,6.71L11,28.59l.55-.47a3.92,3.92,0,0,0,1.29-.65,8.81,8.81,0,0,1,.87.28ZM9.72,28.1l.57.49-.44,1.74L7.61,27.78a6.62,6.62,0,0,1,.92-.31A3.77,3.77,0,0,0,9.72,28.1Zm9.52-4.5L19,23.53a1.4,1.4,0,0,1-.78-1c-.26-1.05-.2-1.8.16-2l.25-.16,0-1.21c0-.27,0-.53,0-.86,0-2.06-.09-3.54,3.28-4.08l.57-.09s3.17-.33,3.93-1.05l.53-.49.07.75a3.55,3.55,0,0,0,.24,1.06l.08.2.2.09c1.81.78,2,2.71,1.95,4.5v1.34l.27.15c.29.17.3.81,0,1.93a1.6,1.6,0,0,1-.84,1.09l-.22.09-.08.23a8.07,8.07,0,0,1-2,3.25,5.15,5.15,0,0,1-.52.43,4.05,4.05,0,0,1-.76.42,3.12,3.12,0,0,1-1,.25,2.36,2.36,0,0,1-.28,0c-.14,0-.27,0-.4,0a3.47,3.47,0,0,1-.92-.25,3.91,3.91,0,0,1-.75-.42c-.18-.14-.36-.28-.52-.43a9.38,9.38,0,0,1-2.07-3.38Zm5.86,9L24.43,30l.92-.79-.06-.05a4.91,4.91,0,0,0,1.56-.84,9.4,9.4,0,0,1,1.5.49Zm-2.49-3.48-.09.08.92.79-.64,2.53-3.25-3.68a11.72,11.72,0,0,1,1.58-.53A4.74,4.74,0,0,0,22.61,29.17Zm11.23-5.5-.25-.07a1,1,0,0,1-.5-.65c-.2-.85-.1-1.28.07-1.39l.24-.16,0-1c0-.23,0-.45,0-.65,0-1.53-.07-2.53,2.34-2.91l.41-.07s2.41-.25,3-.82l.19-.18,0,.29a3.17,3.17,0,0,0,.19.82l.08.21.2.09c1,.44,1.43,1.4,1.38,3.24v1.07l.26.15c.06,0,.23.23,0,1.3a1.06,1.06,0,0,1-.55.73l-.22.09-.08.22a5.92,5.92,0,0,1-1.41,2.33,3.71,3.71,0,0,1-.54.44,2.45,2.45,0,0,1-1.26.41h-.11l-.11,0a2.49,2.49,0,0,1-1.21-.4,3.84,3.84,0,0,1-.54-.44,6.93,6.93,0,0,1-1.47-2.43Zm4.23,6.71-.46-1.79.55-.47a3.92,3.92,0,0,0,1.29-.65,8,8,0,0,1,.87.28ZM36.3,28.1l.58.49-.45,1.74-2.24-2.55a7.1,7.1,0,0,1,.92-.31A3.88,3.88,0,0,0,36.3,28.1Z"/></svg>