<svg id="Layer_1" data-name="Layer 1" xmlns="http://www.w3.org/2000/svg" viewBox="0 0 48 48"><defs><style>.cls-1,.cls-3{fill:#0984e3;}.cls-2{fill:none;}.cls-2,.cls-3{stroke:#0984e3;stroke-miterlimit:10;stroke-width:0.75px;}</style></defs><title>Fine Category</title><path class="cls-1" d="M4.39,14.88h8.32a.71.71,0,0,0,0-1.42H4.39a.71.71,0,0,0,0,1.42Z"/><path class="cls-1" d="M31.61,13.46H15.73a.71.71,0,1,0,0,1.42H31.61a.71.71,0,1,0,0-1.42Z"/><path class="cls-1" d="M4.39,34.54H9.68a.71.71,0,0,0,0-1.42H4.39a.71.71,0,0,0,0,1.42Z"/><path class="cls-1" d="M12.71,34.54h18.9a.71.71,0,0,0,0-1.42H12.71a.71.71,0,0,0,0,1.42Z"/><path class="cls-1" d="M8.92,30.76a.71.71,0,0,0,.71-.71v-.8h0a3,3,0,1,0,0-6H8.17a1.56,1.56,0,0,1,0-3.12H12a.71.71,0,0,0,0-1.42H9.63V18a.71.71,0,1,0-1.41,0v.8H8.17a3,3,0,1,0,0,6H9.68a1.56,1.56,0,1,1,0,3.12H5.9a.71.71,0,1,0,0,1.42H8.22v.8A.7.7,0,0,0,8.92,30.76Z"/><path class="cls-1" d="M18.76,27.83H15a.71.71,0,0,0,0,1.42h2.32v.8a.71.71,0,0,0,1.42,0v-.8h.05a3,3,0,0,0,0-6H17.24a1.56,1.56,0,0,1,0-3.12H21a.71.71,0,0,0,0-1.42H18.71V18a.71.71,0,0,0-1.42,0v.8h-.05a3,3,0,0,0,0,6h1.52a1.56,1.56,0,0,1,0,3.12Z"/><path class="cls-1" d="M27.83,27.83H24.05a.71.71,0,0,0,0,1.42h2.32v.8a.71.71,0,1,0,1.41,0v-.8h0a3,3,0,1,0,0-6H26.32a1.56,1.56,0,1,1,0-3.12H30.1a.71.71,0,1,0,0-1.42H27.78V18a.71.71,0,1,0-1.41,0v.8h-.05a3,3,0,1,0,0,6h1.51a1.56,1.56,0,1,1,0,3.12Z"/><rect class="cls-2" x="36" y="6" width="9" height="6"/><rect class="cls-3" x="36" y="12" width="9" height="6"/><rect class="cls-2" x="36" y="18" width="9" height="6"/><rect class="cls-2" x="36" y="24" width="9" height="6"/><rect class="cls-3" x="36" y="30" width="9" height="6"/><rect class="cls-2" x="36" y="36" width="9" height="6"/></svg>