<svg id="Layer_1" data-name="Layer 1" xmlns="http://www.w3.org/2000/svg" viewBox="0 0 48 48"><defs><style>.cls-1{fill:#0984e3;}</style></defs><title>Fine Report</title><path class="cls-1" d="M42.6,2H9.54a.65.65,0,0,0-.64.65V24a.65.65,0,1,0,1.29,0V3.29H42V41.22a3.49,3.49,0,1,1-7,0,.64.64,0,0,0-.65-.64H10.19V27A.65.65,0,0,0,8.9,27V40.58H5.4a.63.63,0,0,0-.64.64A4.78,4.78,0,0,0,9.53,46H38.47a4.78,4.78,0,0,0,4.77-4.78V2.65A.64.64,0,0,0,42.6,2ZM9.54,44.71h0a3.49,3.49,0,0,1-3.42-2.84H33.73a4.81,4.81,0,0,0,1.47,2.84Z"/><path class="cls-1" d="M39.11,6.78a.65.65,0,0,0-.64-.65H13.67a.65.65,0,0,0-.65.65v5.51a.65.65,0,0,0,.65.65h24.8a.65.65,0,0,0,.64-.65Zm-1.29,4.86H14.31V7.42H37.82Z"/><path class="cls-1" d="M13.67,17.07H17.8a.65.65,0,1,0,0-1.29H13.67a.65.65,0,1,0,0,1.29Z"/><path class="cls-1" d="M38.47,15.78H21.24a.65.65,0,0,0,0,1.29H38.47a.65.65,0,0,0,0-1.29Z"/><path class="cls-1" d="M13.67,19.82h7.57a.65.65,0,1,0,0-1.29H13.67a.65.65,0,1,0,0,1.29Z"/><path class="cls-1" d="M38.47,18.53H24a.65.65,0,1,0,0,1.29H38.47a.65.65,0,0,0,0-1.29Z"/><path class="cls-1" d="M13.67,37.73h4.82a.65.65,0,1,0,0-1.29H13.67a.65.65,0,1,0,0,1.29Z"/><path class="cls-1" d="M21.24,37.73H38.47a.65.65,0,0,0,0-1.29H21.24a.65.65,0,0,0,0,1.29Z"/><path class="cls-1" d="M17.8,34.29a.65.65,0,0,0,.65-.65v-.73h0a2.71,2.71,0,0,0,0-5.42H17.11a1.42,1.42,0,0,1,0-2.84h3.45a.65.65,0,0,0,0-1.3H18.45v-.73a.65.65,0,0,0-1.3,0v.73h0a2.72,2.72,0,0,0,0,5.43h1.38a1.42,1.42,0,1,1,0,2.84H15.05a.65.65,0,1,0,0,1.29h2.1v.73A.65.65,0,0,0,17.8,34.29Z"/><path class="cls-1" d="M26.76,31.62H23.31a.65.65,0,0,0,0,1.29h2.11v.73a.65.65,0,1,0,1.29,0v-.73h.05a2.71,2.71,0,0,0,0-5.42H25.38a1.42,1.42,0,0,1,0-2.84h3.44a.65.65,0,0,0,0-1.3H26.71v-.73a.65.65,0,0,0-1.29,0v.73h0a2.72,2.72,0,0,0,0,5.43h1.38a1.42,1.42,0,0,1,0,2.84Z"/><path class="cls-1" d="M35,31.62H31.58a.65.65,0,1,0,0,1.29h2.11v.73a.65.65,0,1,0,1.29,0v-.73h0a2.71,2.71,0,0,0,0-5.42H33.64a1.42,1.42,0,0,1,0-2.84h3.45a.65.65,0,0,0,0-1.3H35v-.73a.65.65,0,0,0-1.29,0v.73h0a2.72,2.72,0,0,0,0,5.43H35a1.42,1.42,0,0,1,0,2.84Z"/></svg>