<svg id="Layer_1" data-name="Layer 1" xmlns="http://www.w3.org/2000/svg" viewBox="0 0 48 48"><defs><style>.cls-1{fill:#0984e3;}</style></defs><title>User Management</title><path class="cls-1" d="M24,2a4.4,4.4,0,1,0,4.4,4.4A4.4,4.4,0,0,0,24,2Zm0,7.33A2.93,2.93,0,1,1,26.93,6.4,2.93,2.93,0,0,1,24,9.33Z"/><path class="cls-1" d="M26.93,11.53h-.17l-.15.08a5.85,5.85,0,0,1-5.22,0l-.15-.08h-.17A3.68,3.68,0,0,0,17.4,15.2v4.4a2.19,2.19,0,0,0,2.2,2.2h8.8a2.19,2.19,0,0,0,2.2-2.2V15.2A3.68,3.68,0,0,0,26.93,11.53Zm2.2,8.07a.73.73,0,0,1-.73.73H19.6a.73.73,0,0,1-.73-.73V15.2a2.2,2.2,0,0,1,2-2.19,7.34,7.34,0,0,0,6.18,0,2.2,2.2,0,0,1,2,2.19Z"/><path class="cls-1" d="M39.4,26.2a4.4,4.4,0,1,0,4.4,4.4A4.4,4.4,0,0,0,39.4,26.2Zm0,7.33a2.93,2.93,0,1,1,2.93-2.93A2.93,2.93,0,0,1,39.4,33.53Z"/><path class="cls-1" d="M42.33,35.73h-.17l-.15.08a5.91,5.91,0,0,1-5.22,0l-.15-.08h-.17A3.68,3.68,0,0,0,32.8,39.4v4.4A2.19,2.19,0,0,0,35,46h8.8A2.19,2.19,0,0,0,46,43.8V39.4A3.68,3.68,0,0,0,42.33,35.73Zm2.2,8.07a.73.73,0,0,1-.73.73H35a.73.73,0,0,1-.73-.73V39.4a2.2,2.2,0,0,1,2-2.19,7.34,7.34,0,0,0,6.18,0,2.2,2.2,0,0,1,2,2.19Z"/><path class="cls-1" d="M8.6,26.2A4.4,4.4,0,1,0,13,30.6,4.4,4.4,0,0,0,8.6,26.2Zm0,7.33a2.93,2.93,0,1,1,2.93-2.93A2.93,2.93,0,0,1,8.6,33.53Z"/><path class="cls-1" d="M11.53,35.73h-.17l-.15.08a5.91,5.91,0,0,1-5.22,0l-.15-.08H5.67A3.68,3.68,0,0,0,2,39.4v4.4A2.19,2.19,0,0,0,4.2,46H13a2.19,2.19,0,0,0,2.2-2.2V39.4A3.68,3.68,0,0,0,11.53,35.73Zm2.2,8.07a.73.73,0,0,1-.73.73H4.2a.73.73,0,0,1-.73-.73V39.4a2.2,2.2,0,0,1,2-2.19,7.34,7.34,0,0,0,6.18,0,2.2,2.2,0,0,1,2,2.19Z"/><path class="cls-1" d="M31.28,39.24h0a.73.73,0,0,0-1-.39h0a16.26,16.26,0,0,1-10.46.72l.69-.2A.73.73,0,1,0,20.13,38l-2.94.86,0,0a.64.64,0,0,0-.18.1L16.9,39a.64.64,0,0,0-.18.25.63.63,0,0,0,0,.3,1.63,1.63,0,0,0,.07.3,0,0,0,0,0,0,0l1.46,2.8A.74.74,0,1,0,19.52,42l-.6-1.15a17.61,17.61,0,0,0,12-.65A.74.74,0,0,0,31.28,39.24Z"/><path class="cls-1" d="M43.59,21.28a.75.75,0,0,0-1,0l-1,1A17.57,17.57,0,0,0,30.89,7.8a.72.72,0,0,0-1,.39.73.73,0,0,0,.38,1,16.1,16.1,0,0,1,9.7,13l-.82-.83a.74.74,0,0,0-1,0,.72.72,0,0,0,0,1l2.2,2.2a.73.73,0,0,0,1,0h0l2.2-2.2A.75.75,0,0,0,43.59,21.28Z"/><path class="cls-1" d="M18.11,8.35a.59.59,0,0,0,0-.13,0,0,0,0,1,0,0h0a.36.36,0,0,0-.07-.1A.57.57,0,0,0,17.93,8a.67.67,0,0,0-.14-.09.24.24,0,0,0-.09-.06L14.77,6.47a.73.73,0,0,0-.61,1.33l1.52.7A17.57,17.57,0,0,0,6.4,24a.74.74,0,0,0,1.47,0A16.08,16.08,0,0,1,15.8,10.11l-.53,1.11a.73.73,0,0,0,.35,1,.65.65,0,0,0,.31.08.74.74,0,0,0,.66-.42l1.47-3.06v0s0-.1,0-.16a.5.5,0,0,0,0-.12A.68.68,0,0,0,18.11,8.35Z"/></svg>