<svg id="Layer_1" data-name="Layer 1" xmlns="http://www.w3.org/2000/svg" viewBox="0 0 48 48"><defs><style>.cls-1{fill:none;stroke:#0984e3;stroke-miterlimit:10;stroke-width:1.83px;}</style></defs><title>User Role</title><path class="cls-1" d="M23.72,23.19a10.27,10.27,0,0,0,7.5-3.1,10.25,10.25,0,0,0,3.1-7.49,10.27,10.27,0,0,0-3.1-7.5A10.29,10.29,0,0,0,23.72,2a10.25,10.25,0,0,0-7.49,3.1,10.28,10.28,0,0,0-3.11,7.5,10.26,10.26,0,0,0,3.11,7.49A10.25,10.25,0,0,0,23.72,23.19Z"/><path class="cls-1" d="M42.27,35.83a25.9,25.9,0,0,0-.36-2.78,23.26,23.26,0,0,0-.68-2.79,14.7,14.7,0,0,0-1.15-2.61,10,10,0,0,0-1.74-2.26,7.59,7.59,0,0,0-2.49-1.56,8.59,8.59,0,0,0-3.17-.58A3.29,3.29,0,0,0,31,24l-1.79,1.16a10.24,10.24,0,0,1-2.32,1,9,9,0,0,1-5.68,0,10,10,0,0,1-2.32-1L17,24a3.24,3.24,0,0,0-1.72-.73,8.69,8.69,0,0,0-3.18.58,7.8,7.8,0,0,0-2.49,1.56,10.23,10.23,0,0,0-1.73,2.26,14,14,0,0,0-1.15,2.61,23.26,23.26,0,0,0-.68,2.79,25.9,25.9,0,0,0-.36,2.78c-.06.85-.08,1.72-.08,2.6A7.3,7.3,0,0,0,7.82,44a7.81,7.81,0,0,0,5.59,2H34.59a7.81,7.81,0,0,0,5.59-2,7.3,7.3,0,0,0,2.17-5.53C42.35,37.55,42.32,36.67,42.27,35.83Z"/></svg>