<svg id="Layer_1" data-name="Layer 1" xmlns="http://www.w3.org/2000/svg" viewBox="0 0 2000 1000"><defs><style>.cls-1{fill:#fff;}</style></defs><title>Avadi Corporation Logo</title><path class="cls-1" d="M845.91,523.21V500H823.56v23.21H700.63V488.39H723v-31l-33.53-14.34V418.76H667.1v14.75L622.39,414.4V337.52h22.36V314.31H622.39V267.89h-3.33c-7.61-17.9-27-41.65-63.72-45.75V175.05H533V140.23H510.64v34.82H488.28v47.09c-36.69,4.1-56.11,27.85-63.72,45.75h-3.33v46.42H398.88v23.21h22.35v76.89l-44.71,19.11V418.76H354.17v24.31l-33.52,14.34v31H343v34.82H220.06V500H197.71v23.21H175.36V859.77h692.9V523.21Zm0,46.42H700.63V546.42H845.91ZM410.05,813.35h33.53v23.21H410.05ZM387.7,836.56H365.35V813.35H387.7Zm78.23-23.21h44.71v23.21H465.93Zm67.06,0h44.7v23.21H533Zm67,0h33.53v23.21H600Zm55.88,0h22.35v23.21H655.92Zm0-23.21V755.32H633.57v34.82H600V743.71H577.69v46.43H533V743.71H510.64v46.43H465.93V743.71H443.58v46.43H410.05V755.32H387.7v34.82H365.35V708.9h44.7v23.21H432.4V708.9h44.71v23.21h22.35V708.9h44.7v23.21h22.35V708.9h44.71v23.21h22.35V708.9h44.7v81.24Zm22.35-104.45h-44.7V534.82h44.7Zm-67,0H566.51V534.82h44.71Zm-67.06,0h-44.7V534.82h44.7Zm-67,0H432.4V534.82h44.71Zm-67.06,0h-44.7V534.82h44.7ZM343,697.29H309.47V662.48H287.12v34.81H253.59V662.48H231.24v34.81H197.71V592.84H343Zm0,92.85H197.71V720.5H343ZM700.63,720.5H845.91v69.64H700.63Zm111.75-23.21V662.48H790v34.81H756.5V662.48H734.15v34.81H700.63V592.84H845.91V697.29ZM635.73,465.18,521.81,417.87,407.9,465.18H361.17l160.64-68.69,160.64,68.69H635.73Zm-60.2,0H468.09l53.72-22.31Zm-9-127.66v53l-44.7-19.11-44.7,19.11v-53ZM600,404.85l-11.17-4.78V337.52H600Zm-6.79-137H575.78a95.79,95.79,0,0,0-6.35-18.67,52.14,52.14,0,0,1,23.82,18.67m-82.61-23.21H533c10.25,0,16.22,12.81,19.4,23.21h-61.2c3.14-10.4,9.1-23.21,19.45-23.21m0-46.42H533v23.21H510.64Zm-36.46,51a94.69,94.69,0,0,0-6.34,18.65H450.39a52.3,52.3,0,0,1,23.79-18.65m-30.6,41.86H600v23.21H443.58Zm0,46.42h11.18v62.55l-11.18,4.78ZM678.27,511.61H365.35V488.39H678.27ZM343,569.63H197.71V546.42H343ZM197.71,813.35H343v23.21H197.71Zm502.92,0H845.91v23.21H700.63Z"/><path class="cls-1" d="M1025.28,469.39l-24.18,76.05H970l79.11-241.77h36.27l79.45,241.77h-32.13l-24.87-76.05ZM1101.62,445l-22.8-69.59c-5.18-15.79-8.63-30.13-12.09-44.12H1066c-3.45,14.35-7.25,29-11.74,43.76L1031.5,445Z"/><path class="cls-1" d="M1229.09,545.44l-76-241.77h32.48l36.27,119.09c10,32.64,18.65,62.06,24.87,90.39h.69c6.57-28,16.24-58.47,26.6-90l39.38-119.45h32.13l-83.25,241.77Z"/><path class="cls-1" d="M1383.51,469.39l-24.18,76.05h-31.1l79.11-241.77h36.28l79.45,241.77h-32.13l-24.87-76.05ZM1459.85,445l-22.8-69.59c-5.18-15.79-8.63-30.13-12.09-44.12h-.69c-3.45,14.35-7.25,29-11.75,43.76L1389.73,445Z"/><path class="cls-1" d="M1564.52,306.89a416.24,416.24,0,0,1,63.91-5c43.18,0,73.93,10.4,94.31,30.13,20.73,19.73,32.82,47.71,32.82,86.81,0,39.46-11.75,71.74-33.51,94-21.76,22.59-57.69,34.79-102.94,34.79a468.26,468.26,0,0,1-54.59-2.87Zm30.06,213.79c7.6,1.44,18.65,1.8,30.4,1.8,64.25,0,99.14-37.31,99.14-102.59.35-57-30.74-93.27-94.3-93.27-15.55,0-27.3,1.44-35.24,3.23Z"/><path class="cls-1" d="M1824.64,303.67V545.44h-30.05V303.67Z"/><path class="cls-1" d="M1047.61,693.39c-4.43,2.29-13.28,4.59-24.63,4.59-26.29,0-46.08-17.24-46.08-49,0-30.32,19.79-50.86,48.71-50.86,11.62,0,19,2.58,22.14,4.31l-2.91,10.2a42.44,42.44,0,0,0-18.82-4c-21.86,0-36.39,14.52-36.39,39.95,0,23.71,13.15,38.93,35.84,38.93,7.33,0,14.81-1.58,19.65-4Z"/><path class="cls-1" d="M1142.39,647.12c0,33.34-19.51,51-43.31,51-24.63,0-41.93-19.83-41.93-49.14,0-30.75,18.41-50.86,43.31-50.86C1125.92,598.13,1142.39,618.39,1142.39,647.12ZM1070,648.7c0,20.69,10.79,39.23,29.75,39.23s29.89-18.25,29.89-40.23c0-19.26-9.69-39.37-29.75-39.37S1070,627.44,1070,648.7Z"/><path class="cls-1" d="M1158,601a121.2,121.2,0,0,1,23.11-2c12.87,0,21.17,2.44,27,7.9,4.71,4.31,7.33,10.92,7.33,18.39,0,12.79-7.74,21.27-17.57,24.71v.44c7.2,2.58,11.49,9.48,13.7,19.54,3,13.5,5.26,22.84,7.2,26.58h-12.46c-1.52-2.73-3.59-11.07-6.22-23.14-2.77-13.36-7.75-18.39-18.68-18.82h-11.35v42h-12Zm12,44.11h12.31c12.87,0,21-7.33,21-18.39,0-12.5-8.72-18-21.45-18.11a47.38,47.38,0,0,0-11.9,1.16Z"/><path class="cls-1" d="M1234,600.86a134.19,134.19,0,0,1,23.11-1.87c11.9,0,20.62,2.87,26.15,8,5.12,4.59,8.17,11.63,8.17,20.25s-2.49,15.66-7.2,20.69c-6.36,7-16.74,10.64-28.5,10.64a39.88,39.88,0,0,1-9.69-.87v38.8h-12Zm12,46.69a38.84,38.84,0,0,0,10,1c14.53,0,23.39-7.33,23.39-20.69,0-12.79-8.72-19-22-19a48.41,48.41,0,0,0-11.35,1Z"/><path class="cls-1" d="M1387.29,647.12c0,33.34-19.51,51-43.3,51-24.63,0-41.93-19.83-41.93-49.14,0-30.75,18.4-50.86,43.31-50.86C1370.83,598.13,1387.29,618.39,1387.29,647.12Zm-72.36,1.58c0,20.69,10.79,39.23,29.75,39.23s29.88-18.25,29.88-40.23c0-19.26-9.68-39.37-29.74-39.37S1314.93,627.44,1314.93,648.7Z"/><path class="cls-1" d="M1402.93,601a121.09,121.09,0,0,1,23.1-2c12.87,0,21.17,2.44,27,7.9,4.7,4.31,7.33,10.92,7.33,18.39,0,12.79-7.75,21.27-17.57,24.71v.44c7.19,2.58,11.48,9.48,13.69,19.54,3,13.5,5.26,22.84,7.2,26.58h-12.45c-1.53-2.73-3.6-11.07-6.23-23.14-2.77-13.36-7.75-18.39-18.68-18.82H1415v42h-12Zm12,44.11h12.32c12.87,0,21-7.33,21-18.39,0-12.5-8.72-18-21.44-18.11a47.42,47.42,0,0,0-11.91,1.16Z"/><path class="cls-1" d="M1492.45,666.09l-9.69,30.46h-12.45L1502,599.71h14.53l31.82,96.84h-12.87l-10-30.46Zm30.58-9.77-9.13-27.88c-2.08-6.32-3.46-12.07-4.85-17.67h-.27c-1.39,5.75-2.91,11.64-4.71,17.53l-9.13,28Z"/><path class="cls-1" d="M1568.27,610.34h-28.36V599.71h69v10.63h-28.5v86.21h-12.18Z"/><path class="cls-1" d="M1631.37,599.71v96.84h-12V599.71Z"/><path class="cls-1" d="M1732.1,647.12c0,33.34-19.51,51-43.31,51-24.63,0-41.93-19.83-41.93-49.14,0-30.75,18.41-50.86,43.31-50.86C1715.63,598.13,1732.1,618.39,1732.1,647.12Zm-72.37,1.58c0,20.69,10.8,39.23,29.75,39.23s29.89-18.25,29.89-40.23c0-19.26-9.69-39.37-29.75-39.37S1659.73,627.44,1659.73,648.7Z"/><path class="cls-1" d="M1747.73,696.55V599.71h13.15l29.88,49a277.15,277.15,0,0,1,16.75,31.47l.27-.15c-1.1-12.93-1.38-24.71-1.38-39.8V599.71h11.35v96.84h-12.18L1776,647.41a310.92,310.92,0,0,1-17.43-32.33l-.42.15c.69,12.21,1,23.84,1,39.94v41.38Z"/></svg>