<svg id="Layer_1" data-name="Layer 1" xmlns="http://www.w3.org/2000/svg" viewBox="0 0 1000 1000"><defs><style>.cls-1{fill:#0984e3;}</style></defs><title>Avadi logo blue</title><path class="cls-1" d="M824.12,450.4V427.19H801.77V450.4H678.84V415.58h22.35v-31l-33.53-14.34V346H645.31V360.7l-44.7-19.11V264.71H623V241.5H600.61V195.08h-3.33c-7.62-17.9-27-41.65-63.73-45.75V102.24H511.2V67.42H488.85v34.82H466.49v47.09c-36.69,4.1-56.11,27.85-63.72,45.75h-3.33V241.5H377.09v23.21h22.35V341.6l-44.7,19.11V346H332.38v24.31L298.86,384.6v31h22.35V450.4H198.27V427.19H175.92V450.4H153.57V787H846.48V450.4Zm0,46.42H678.84V473.61H824.12ZM388.26,740.54h33.53v23.21H388.26Zm-22.35,23.21H343.56V740.54h22.35Zm78.23-23.21h44.71v23.21H444.14Zm67.06,0h44.7v23.21H511.2Zm67.05,0h33.53v23.21H578.25Zm55.88,0h22.36v23.21H634.13Zm0-23.21V682.51H611.78v34.82H578.25V670.9H555.9v46.43H511.2V670.9H488.85v46.43H444.14V670.9H421.79v46.43H388.26V682.51H365.91v34.82H343.56V636.09h44.7V659.3h22.36V636.09h44.7V659.3h22.35V636.09h44.7V659.3h22.36V636.09h44.7V659.3h22.35V636.09h44.71v81.24Zm22.36-104.45H611.78V462h44.71Zm-67.06,0h-44.7V462h44.7Zm-67.06,0h-44.7V462h44.7Zm-67.05,0H410.61V462h44.71Zm-67.06,0h-44.7V462h44.7Zm-67.05,11.6H287.68V589.67H265.33v34.81H231.8V589.67H209.45v34.81H175.92V520H321.21Zm0,92.85H175.92V647.69H321.21Zm357.63-69.64H824.12v69.64H678.84ZM790.6,624.48V589.67H768.24v34.81H734.72V589.67H712.36v34.81H678.84V520H824.12V624.48ZM613.94,392.37,500,345.06,386.11,392.37H339.38L500,323.68l160.65,68.69H613.94Zm-60.19,0H446.3L500,370.06Zm-9-127.66v53L500,298.59l-44.7,19.11v-53ZM578.25,332l-11.17-4.78V264.71h11.17Zm-6.79-137H554a95.13,95.13,0,0,0-6.35-18.67,52.14,52.14,0,0,1,23.82,18.67m-82.61-23.21H511.2c10.25,0,16.23,12.81,19.4,23.21H469.4c3.14-10.4,9.1-23.21,19.45-23.21m0-46.42H511.2v23.21H488.85Zm-36.46,51a94.69,94.69,0,0,0-6.34,18.65H428.6a52.3,52.3,0,0,1,23.79-18.65m-30.6,41.86H578.25V241.5H421.79Zm0,46.42H433v62.55L421.79,332ZM656.49,438.8H343.56V415.58H656.49Zm-335.28,58H175.92V473.61H321.21ZM175.92,740.54H321.21v23.21H175.92Zm502.92,0H824.12v23.21H678.84Z"/><path class="cls-1" d="M129.28,912.51l-6.07,19.08h-7.8l19.85-60.66h9.1l19.93,60.66h-8.06L150,912.51Zm19.15-6.12-5.72-17.46c-1.3-4-2.17-7.56-3-11.07h-.18c-.86,3.6-1.82,7.29-2.94,11l-5.72,17.55Z"/><path class="cls-1" d="M180.41,931.59l-19.07-60.66h8.15l9.1,29.88c2.51,8.19,4.68,15.57,6.24,22.68H185c1.65-7,4.08-14.67,6.68-22.59l9.88-30h8.06l-20.89,60.66Z"/><path class="cls-1" d="M219.15,912.51l-6.07,19.08h-7.8l19.85-60.66h9.1l19.94,60.66h-8.06l-6.24-19.08Zm19.16-6.12-5.72-17.46c-1.3-4-2.17-7.56-3-11.07h-.17c-.87,3.6-1.82,7.29-2.95,11l-5.72,17.55Z"/><path class="cls-1" d="M264.57,871.74a104,104,0,0,1,16-1.26c10.83,0,18.55,2.61,23.66,7.56s8.24,12,8.24,21.78-2.95,18-8.41,23.58-14.48,8.73-25.83,8.73a117.18,117.18,0,0,1-13.69-.72Zm7.54,53.64a45.79,45.79,0,0,0,7.62.45c16.12,0,24.88-9.36,24.88-25.74.08-14.31-7.72-23.4-23.66-23.4a41.28,41.28,0,0,0-8.84.81Z"/><path class="cls-1" d="M329.83,870.93v60.66h-7.54V870.93Z"/><path class="cls-1" d="M402.2,929.61c-2.78,1.44-8.33,2.88-15.43,2.88-16.47,0-28.86-10.8-28.86-30.69,0-19,12.39-31.86,30.5-31.86,7.28,0,11.88,1.62,13.87,2.7L400.46,879a26.6,26.6,0,0,0-11.79-2.52c-13.69,0-22.79,9.09-22.79,25,0,14.85,8.23,24.39,22.45,24.39a29.19,29.19,0,0,0,12.3-2.52Z"/><path class="cls-1" d="M461.56,900.63c0,20.88-12.22,32-27.13,32-15.42,0-26.26-12.42-26.26-30.78,0-19.26,11.53-31.86,27.13-31.86C451.25,869.94,461.56,882.63,461.56,900.63Zm-45.33,1c0,13,6.76,24.57,18.64,24.57s18.72-11.43,18.72-25.2c0-12.06-6.07-24.66-18.64-24.66S416.23,888.3,416.23,901.62Z"/><path class="cls-1" d="M471.35,871.74a75.83,75.83,0,0,1,14.48-1.26c8.06,0,13.26,1.53,16.9,4.95A15.38,15.38,0,0,1,507.32,887a15.86,15.86,0,0,1-11,15.48v.27c4.5,1.62,7.19,5.94,8.58,12.24,1.9,8.46,3.29,14.31,4.5,16.65h-7.8c-1-1.71-2.25-6.93-3.9-14.49-1.73-8.37-4.85-11.52-11.7-11.79h-7.1v26.28h-7.55Zm7.55,27.63h7.71c8.06,0,13.17-4.59,13.17-11.52,0-7.83-5.46-11.25-13.43-11.34a29.86,29.86,0,0,0-7.45.72Z"/><path class="cls-1" d="M518.94,871.65a84.16,84.16,0,0,1,14.47-1.17c7.45,0,12.91,1.8,16.38,5,3.21,2.88,5.11,7.29,5.11,12.69s-1.56,9.81-4.5,13c-4,4.41-10.49,6.66-17.86,6.66a25,25,0,0,1-6.06-.54v24.3h-7.54Zm7.54,29.25a24.32,24.32,0,0,0,6.24.63c9.1,0,14.64-4.59,14.64-13,0-8-5.46-11.88-13.78-11.88a30.46,30.46,0,0,0-7.1.63Z"/><path class="cls-1" d="M615,900.63c0,20.88-12.22,32-27.13,32-15.43,0-26.26-12.42-26.26-30.78,0-19.26,11.52-31.86,27.13-31.86C604.65,869.94,615,882.63,615,900.63Zm-45.33,1c0,13,6.76,24.57,18.63,24.57S607,914.76,607,901c0-12.06-6.07-24.66-18.63-24.66S569.64,888.3,569.64,901.62Z"/><path class="cls-1" d="M624.76,871.74a75.64,75.64,0,0,1,14.47-1.26c8.06,0,13.26,1.53,16.9,4.95a15.39,15.39,0,0,1,4.6,11.52,15.87,15.87,0,0,1-11,15.48v.27c4.51,1.62,7.19,5.94,8.58,12.24,1.91,8.46,3.29,14.31,4.51,16.65H655c-1-1.71-2.26-6.93-3.9-14.49-1.74-8.37-4.86-11.52-11.7-11.79H632.3v26.28h-7.54Zm7.54,27.63H640c8.06,0,13.18-4.59,13.18-11.52,0-7.83-5.46-11.25-13.44-11.34a29.86,29.86,0,0,0-7.45.72Z"/><path class="cls-1" d="M680.83,912.51l-6.06,19.08H667l19.84-60.66h9.1l19.94,60.66h-8.06l-6.24-19.08ZM700,906.39l-5.72-17.46c-1.3-4-2.17-7.56-3-11.07h-.17c-.87,3.6-1.82,7.29-2.95,11l-5.72,17.55Z"/><path class="cls-1" d="M728.33,877.59H710.56v-6.66h43.25v6.66H736v54h-7.62Z"/><path class="cls-1" d="M767.85,870.93v60.66h-7.54V870.93Z"/><path class="cls-1" d="M830.94,900.63c0,20.88-12.22,32-27.12,32-15.43,0-26.27-12.42-26.27-30.78,0-19.26,11.53-31.86,27.13-31.86C820.63,869.94,830.94,882.63,830.94,900.63Zm-45.32,1c0,13,6.76,24.57,18.63,24.57S823,914.76,823,901c0-12.06-6.07-24.66-18.63-24.66S785.62,888.3,785.62,901.62Z"/><path class="cls-1" d="M840.74,931.59V870.93H849l18.72,30.69a175.48,175.48,0,0,1,10.49,19.71l.17-.09c-.69-8.1-.87-15.48-.87-24.93V870.93h7.11v60.66H877l-18.54-30.78a192.28,192.28,0,0,1-10.92-20.25l-.26.09c.43,7.65.6,14.94.6,25v25.92Z"/></svg>