<svg id="Layer_1" data-name="Layer 1" xmlns="http://www.w3.org/2000/svg" viewBox="0 0 1000 1000"><defs><style>.cls-1{fill:#fff;}</style></defs><title>Avadi logo white</title><path class="cls-1" d="M824.1,523.21V500H801.75v23.21H678.81V488.39h22.36v-31l-33.53-14.34V418.76H645.29v14.75L600.58,414.4V337.52h22.35V314.31H600.58V267.89h-3.33c-7.61-17.9-27-41.65-63.72-45.75V175.05H511.18V140.23H488.82v34.82H466.47v47.09c-36.69,4.1-56.11,27.85-63.72,45.75h-3.33v46.42H377.07v23.21h22.35v76.89l-44.71,19.11V418.76H332.36v24.31l-33.53,14.34v31h22.36v34.82H198.25V500H175.9v23.21H153.55V859.77h692.9V523.21Zm0,46.42H678.82V546.42H824.1ZM388.24,813.35h33.53v23.21H388.24Zm-22.35,23.21H343.54V813.35h22.35Zm78.23-23.21h44.71v23.21H444.12Zm67.06,0h44.7v23.21h-44.7Zm67.05,0h33.53v23.21H578.23Zm55.88,0h22.35v23.21H634.11Zm0-23.21V755.32H611.76v34.82H578.23V743.71H555.88v46.43h-44.7V743.71H488.82v46.43h-44.7V743.71H421.77v46.43H388.24V755.32H365.89v34.82H343.54V708.9h44.7v23.21h22.35V708.9H455.3v23.21h22.35V708.9h44.7v23.21H544.7V708.9h44.71v23.21h22.35V708.9h44.7v81.24Zm22.35-104.45h-44.7V534.82h44.7Zm-67.05,0H544.7V534.82h44.71Zm-67.06,0h-44.7V534.82h44.7Zm-67.05,0H410.59V534.82H455.3Zm-67.06,0h-44.7V534.82h44.7Zm-67.05,11.6H287.66V662.48H265.31v34.81H231.78V662.48H209.43v34.81H175.9V592.84H321.19Zm0,92.85H175.9V720.5H321.19ZM678.81,720.5H824.1v69.64H678.81Zm111.76-23.21V662.48H768.22v34.81H734.69V662.48H712.34v34.81H678.81V592.84H824.1V697.29ZM613.92,465.18,500,417.87,386.08,465.18H339.36L500,396.49l160.64,68.69H613.92Zm-60.2,0H446.28L500,442.87Zm-9-127.66v53L500,371.4l-44.7,19.11v-53Zm33.53,67.33-11.17-4.78V337.52h11.17Zm-6.79-137H554a95.79,95.79,0,0,0-6.35-18.67,52.14,52.14,0,0,1,23.82,18.67m-82.62-23.21h22.36c10.24,0,16.22,12.81,19.4,23.21h-61.2c3.14-10.4,9.1-23.21,19.44-23.21m0-46.42h22.36v23.21H488.82Zm-36.45,51A94.69,94.69,0,0,0,446,267.89H428.58a52.3,52.3,0,0,1,23.79-18.65m-30.6,41.86H578.23v23.21H421.77Zm0,46.42H433v62.55l-11.18,4.78ZM656.46,511.61H343.54V488.39H656.46Zm-335.27,58H175.9V546.42H321.19ZM175.9,813.35H321.19v23.21H175.9Zm502.91,0H824.1v23.21H678.81Z"/></svg>