<svg id="Layer_1" data-name="Layer 1" xmlns="http://www.w3.org/2000/svg" xmlns:xlink="http://www.w3.org/1999/xlink" viewBox="0 0 1000 1000"><defs><style>.cls-1,.cls-4{fill:none;}.cls-2{fill:#fff;}.cls-3{clip-path:url(#clip-path);}.cls-4{stroke:#5a4554;stroke-miterlimit:10;stroke-width:14px;}.cls-5{fill:#ffe8ce;}.cls-6{fill:#5a4554;}</style><clipPath id="clip-path"><rect class="cls-1" width="1000" height="1000"/></clipPath></defs><title>Avadi</title><rect class="cls-2" x="7.5" y="7.5" width="985" height="985"/><g class="cls-3"><rect class="cls-4" x="7.5" y="7.5" width="985" height="985"/></g><polygon class="cls-5" points="310.01 396.75 388.24 396.75 500 350.33 611.76 396.75 689.99 396.75 689.99 385.15 500 303.91 310.01 385.15 310.01 396.75"/><rect class="cls-5" x="321.21" y="398.89" width="335.28" height="34.82"/><g class="cls-3"><path class="cls-5" d="M599.38,236.26S587,149.72,525,149.72h-49.6c-62,0-74.39,86.54-74.39,86.54Z"/><rect class="cls-5" x="168.74" y="721.82" width="661.08" height="34.01"/><rect class="cls-5" x="174.5" y="461.35" width="156.46" height="39.17"/><rect class="cls-5" x="678.82" y="464.93" width="152.27" height="37.03"/><rect class="cls-6" x="209.43" y="663.68" width="22.35" height="23.21"/><rect class="cls-6" x="265.31" y="663.68" width="22.35" height="23.21"/><rect class="cls-6" x="209.43" y="536.02" width="22.35" height="23.21"/><rect class="cls-6" x="265.31" y="536.02" width="22.35" height="23.21"/><rect class="cls-6" x="488.82" y="489.59" width="22.35" height="69.63"/><rect class="cls-6" x="421.77" y="489.59" width="22.35" height="69.63"/><rect class="cls-6" x="354.71" y="501.2" width="22.35" height="58.03"/><rect class="cls-6" x="622.93" y="501.2" width="22.35" height="58.03"/><rect class="cls-6" x="555.88" y="489.59" width="22.35" height="69.63"/><path class="cls-6" d="M824.1,443.17V420H801.75v23.21H678.81V408.36h22.36v-31L667.64,363V338.72H645.29v14.75l-44.71-19.11V257.49h22.35V234.28H600.58V187.85h-3.33c-7.61-17.89-27-41.65-63.72-45.75V95H511.18V60.19H488.82V95H466.47V142.1c-36.69,4.1-56.11,27.86-63.72,45.75h-3.33v46.43H377.07v23.21h22.35v76.88l-44.71,19.12V338.72H332.36V363l-33.53,14.33v31h22.36v34.81H198.25V420H175.9v23.21H153.55V779.73h692.9V443.17Zm0,46.42H678.82V466.38H824.1ZM388.24,733.31h33.53v23.21H388.24Zm-22.35,23.21H343.54V733.31h22.35Zm78.23-23.21h44.71v23.21H444.12Zm67.06,0h44.7v23.21h-44.7Zm67.05,0h33.53v23.21H578.23Zm55.88,0h22.35v23.21H634.11Zm0-23.21V675.28H611.76V710.1H578.23V663.68H555.88V710.1h-44.7V663.68H488.82V710.1h-44.7V663.68H421.77V710.1H388.24V675.28H365.89V710.1H343.54V628.86h44.7v23.21h22.35V628.86H455.3v23.21h22.35V628.86h44.7v23.21H544.7V628.86h44.71v23.21h22.35V628.86h44.7V710.1Zm22.35-104.45h-44.7V454.78h44.7Zm-67.05,0H544.7V454.78h44.71Zm-67.06,0h-44.7V454.78h44.7Zm-67.05,0H410.59V454.78H455.3Zm-67.06,0h-44.7V454.78h44.7Zm-67.05,11.61H287.66V582.44H265.31v34.82H231.78V582.44H209.43v34.82H175.9V512.81H321.19Zm0,92.84H175.9V640.46H321.19Zm357.62-69.64H824.1V710.1H678.81Zm111.76-23.2V582.44H768.22v34.82H734.69V582.44H712.34v34.82H678.81V512.81H824.1V617.26ZM613.92,385.15,500,337.83,386.08,385.15H339.36L500,316.45l160.64,68.7H613.92Zm-60.2,0H446.28L500,362.83Zm-9-127.66v53L500,291.36l-44.7,19.12v-53Zm33.53,67.32L567.06,320V257.49h11.17Zm-6.79-137H554a96,96,0,0,0-6.35-18.67,52.14,52.14,0,0,1,23.82,18.67m-82.62-23.21h22.36c10.24,0,16.22,12.81,19.4,23.21h-61.2c3.14-10.4,9.1-23.21,19.44-23.21m0-46.42h22.36v23.21H488.82Zm-36.45,51A94.91,94.91,0,0,0,446,187.85H428.58a52.3,52.3,0,0,1,23.79-18.65m-30.6,41.86H578.23v23.22H421.77Zm0,46.43H433V320l-11.18,4.78ZM656.46,431.57H343.54V408.36H656.46Zm-335.27,58H175.9V466.38H321.19ZM175.9,733.31H321.19v23.21H175.9Zm502.91,0H824.1v23.21H678.81Z"/><rect class="cls-6" x="768.22" y="663.68" width="22.35" height="23.21"/><rect class="cls-6" x="712.34" y="663.68" width="22.35" height="23.21"/><rect class="cls-6" x="768.22" y="536.02" width="22.35" height="23.21"/><rect class="cls-6" x="712.34" y="536.02" width="22.35" height="23.21"/></g><path class="cls-6" d="M129.28,893.45l-6.07,19.08h-7.8l19.85-60.66h9.1l19.93,60.66h-8.06L150,893.45Zm19.15-6.12-5.72-17.46c-1.3-4-2.17-7.56-3-11.07h-.18c-.86,3.6-1.82,7.29-2.94,11l-5.72,17.55Z"/><path class="cls-6" d="M180.41,912.53l-19.07-60.66h8.15l9.1,29.88c2.51,8.19,4.68,15.57,6.24,22.68H185c1.65-7,4.08-14.67,6.68-22.59l9.88-30h8.06l-20.89,60.66Z"/><path class="cls-6" d="M219.15,893.45l-6.07,19.08h-7.8l19.85-60.66h9.1l19.94,60.66h-8.06l-6.24-19.08Zm19.16-6.12-5.72-17.46c-1.3-4-2.17-7.56-3-11.07h-.17c-.87,3.6-1.82,7.29-2.95,11l-5.72,17.55Z"/><path class="cls-6" d="M264.57,852.68a104,104,0,0,1,16-1.26c10.83,0,18.55,2.61,23.66,7.56s8.24,12,8.24,21.78-2.95,18-8.41,23.58-14.48,8.73-25.83,8.73a117.18,117.18,0,0,1-13.69-.72Zm7.54,53.64a45.79,45.79,0,0,0,7.62.45c16.12,0,24.88-9.36,24.88-25.74.08-14.31-7.72-23.4-23.66-23.4a41.28,41.28,0,0,0-8.84.81Z"/><path class="cls-6" d="M329.83,851.87v60.66h-7.54V851.87Z"/><path class="cls-6" d="M402.2,910.55c-2.78,1.44-8.32,2.88-15.43,2.88-16.47,0-28.86-10.8-28.86-30.69,0-19,12.39-31.86,30.5-31.86,7.28,0,11.88,1.62,13.87,2.7L400.46,860a26.6,26.6,0,0,0-11.79-2.52c-13.69,0-22.79,9.09-22.79,25,0,14.85,8.23,24.39,22.45,24.39a29.19,29.19,0,0,0,12.3-2.52Z"/><path class="cls-6" d="M461.56,881.57c0,20.88-12.22,31.95-27.13,31.95-15.42,0-26.26-12.42-26.26-30.78,0-19.26,11.53-31.86,27.13-31.86C451.25,850.88,461.56,863.57,461.56,881.57Zm-45.33,1c0,13,6.76,24.57,18.64,24.57s18.72-11.43,18.72-25.2c0-12.06-6.07-24.66-18.64-24.66S416.23,869.24,416.23,882.56Z"/><path class="cls-6" d="M471.35,852.68a75.83,75.83,0,0,1,14.48-1.26c8.06,0,13.26,1.53,16.9,5a15.38,15.38,0,0,1,4.59,11.52,15.86,15.86,0,0,1-11,15.48v.27c4.5,1.62,7.19,5.94,8.58,12.24,1.9,8.46,3.29,14.31,4.5,16.65h-7.8c-1-1.71-2.25-6.93-3.9-14.49-1.73-8.37-4.85-11.52-11.7-11.79h-7.1v26.28h-7.55Zm7.55,27.63h7.71c8.06,0,13.17-4.59,13.17-11.52,0-7.83-5.46-11.25-13.43-11.34a29.86,29.86,0,0,0-7.45.72Z"/><path class="cls-6" d="M518.94,852.59a84.16,84.16,0,0,1,14.47-1.17c7.45,0,12.91,1.8,16.38,5,3.21,2.88,5.11,7.29,5.11,12.69s-1.56,9.81-4.5,13c-4,4.41-10.49,6.66-17.86,6.66a25,25,0,0,1-6.06-.54v24.3h-7.54Zm7.54,29.25a24.32,24.32,0,0,0,6.24.63c9.1,0,14.64-4.59,14.64-13,0-8-5.46-11.88-13.78-11.88a30.46,30.46,0,0,0-7.1.63Z"/><path class="cls-6" d="M615,881.57c0,20.88-12.22,31.95-27.13,31.95-15.43,0-26.26-12.42-26.26-30.78,0-19.26,11.52-31.86,27.13-31.86C604.65,850.88,615,863.57,615,881.57Zm-45.33,1c0,13,6.76,24.57,18.63,24.57S607,895.7,607,881.93c0-12.06-6.07-24.66-18.63-24.66S569.64,869.24,569.64,882.56Z"/><path class="cls-6" d="M624.76,852.68a75.64,75.64,0,0,1,14.47-1.26c8.06,0,13.26,1.53,16.9,5a15.39,15.39,0,0,1,4.6,11.52,15.87,15.87,0,0,1-11,15.48v.27c4.51,1.62,7.19,5.94,8.58,12.24,1.91,8.46,3.29,14.31,4.51,16.65H655c-1-1.71-2.26-6.93-3.9-14.49-1.74-8.37-4.86-11.52-11.7-11.79H632.3v26.28h-7.54Zm7.54,27.63H640c8.06,0,13.18-4.59,13.18-11.52,0-7.83-5.46-11.25-13.44-11.34a29.86,29.86,0,0,0-7.45.72Z"/><path class="cls-6" d="M680.83,893.45l-6.06,19.08H667l19.84-60.66h9.1l19.94,60.66h-8.06l-6.24-19.08ZM700,887.33l-5.72-17.46c-1.3-4-2.17-7.56-3-11.07h-.17c-.87,3.6-1.82,7.29-2.95,11l-5.72,17.55Z"/><path class="cls-6" d="M728.33,858.53H710.56v-6.66h43.25v6.66H736v54h-7.62Z"/><path class="cls-6" d="M767.85,851.87v60.66h-7.54V851.87Z"/><path class="cls-6" d="M830.94,881.57c0,20.88-12.22,31.95-27.12,31.95-15.43,0-26.27-12.42-26.27-30.78,0-19.26,11.53-31.86,27.13-31.86C820.63,850.88,830.94,863.57,830.94,881.57Zm-45.32,1c0,13,6.76,24.57,18.63,24.57S823,895.7,823,881.93c0-12.06-6.07-24.66-18.63-24.66S785.62,869.24,785.62,882.56Z"/><path class="cls-6" d="M840.74,912.53V851.87H849l18.72,30.69a175.48,175.48,0,0,1,10.49,19.71l.17-.09c-.69-8.1-.87-15.48-.87-24.93V851.87h7.11v60.66H877l-18.54-30.78A192.28,192.28,0,0,1,847.5,861.5l-.26.09c.43,7.65.6,14.94.6,25v25.92Z"/></svg>